<svg preserveAspectRatio="xMidYMid meet" viewBox="0 0 453.22200000000004 131.8166089965398" xmlns="http://www.w3.org/2000/svg" version="1.0" style="max-height: 500px" width="453.22200000000004" height="131.8166089965398">  <g stroke="none" fill="#5667cc" transform="translate(0.000000,401.000000) scale(0.100000,-0.100000)"> <path d="M145 3936 c-16 -7 -39 -23 -50 -36 -19 -21 -20 -38 -23 -516 -3 -545 -3 -548 59 -579 43 -23 1386 -22 1429 0 62 32 60 11 60 565 0 554 2 533 -60 565 -25 13 -125 15 -707 15 -540 -1 -684 -3 -708 -14z m1403 -52 c19 -13 22 -24 22 -88 l0 -74 -722 2 -723 1 -3 62 c-3 56 0 66 22 88 l25 25 678 0 c598 0 681 -2 701 -16z m-150 -212 l172 -2 0 -399 0 -400 -22 -15 c-20 -14 -103 -16 -704 -16 l-683 0 -20 26 c-20 26 -21 37 -21 414 0 213 2 389 4 391 5 4 958 5 1274 1z"/> <path d="M212 3828 c-18 -18 -15 -36 9 -49 29 -15 59 12 43 39 -14 22 -36 26 -52 10z"/> <path d="M363 3833 c-17 -6 -16 -38 1 -52 22 -18 48 -2 44 28 -3 25 -20 35 -45 24z"/> <path d="M744 3590 c-40 -16 -75 -70 -72 -109 3 -35 7 -39 77 -70 22 -10 9 -26 -19 -23 -34 4 -72 33 -89 67 l-14 29 -28 -32 c-23 -26 -29 -42 -29 -78 0 -41 -2 -46 -19 -41 -24 6 -31 -10 -31 -68 0 -35 6 -52 31 -79 17 -20 28 -40 24 -46 -3 -6 -11 -8 -16 -5 -25 16 -5 -41 25 -71 43 -43 62 -43 70 -2 5 24 1 37 -15 54 -30 32 -14 52 17 23 l24 -22 49 26 c55 30 71 33 71 14 0 -8 -18 -22 -41 -32 -48 -22 -79 -58 -79 -92 0 -57 56 -113 113 -113 35 0 56 21 59 60 3 30 7 35 31 38 30 4 36 -14 15 -47 -9 -15 -9 -23 1 -35 28 -34 73 -3 53 37 -6 12 -12 31 -14 42 -3 17 -12 20 -62 23 -41 2 -65 -2 -83 -13 -13 -9 -32 -14 -41 -10 -15 6 -13 10 11 31 15 13 41 24 56 24 20 0 30 6 34 20 4 16 14 20 47 20 47 0 101 -36 110 -74 4 -14 14 -21 30 -21 20 0 25 5 25 25 0 17 -6 26 -20 29 -11 2 -36 16 -56 32 -26 20 -49 29 -85 31 -42 3 -49 6 -52 26 -3 21 0 22 65 22 50 0 76 -5 101 -20 18 -11 41 -20 52 -20 10 0 22 -4 25 -10 17 -28 71 3 59 34 -7 18 -49 22 -59 6 -10 -16 -33 -12 -75 15 -32 20 -52 25 -105 25 -37 0 -65 4 -65 10 0 6 -11 10 -24 10 -13 0 -40 14 -61 30 -46 37 -84 38 -115 5 -26 -28 -50 -33 -50 -10 0 8 5 15 10 15 18 0 35 49 22 62 -7 7 -12 18 -12 25 0 20 28 16 39 -6 6 -10 26 -22 45 -25 18 -4 51 -20 71 -36 l38 -30 141 0 c89 0 146 -4 153 -11 18 -18 58 -6 61 19 4 27 -21 39 -51 23 -14 -8 -64 -11 -142 -9 -112 3 -120 4 -120 23 0 18 8 21 70 25 49 4 81 13 108 29 37 23 40 23 67 7 26 -15 30 -15 45 0 18 19 16 33 -7 48 -18 11 -22 10 -119 -38 -45 -21 -68 -26 -110 -24 -50 3 -54 5 -54 28 0 23 4 25 50 28 33 2 60 11 80 26 16 13 42 26 58 30 20 5 27 13 27 30 0 26 -21 39 -45 30 -8 -4 -15 -14 -15 -24 0 -10 -15 -29 -34 -44 -43 -33 -103 -36 -129 -6 -9 11 -25 20 -36 20 -27 0 -75 40 -63 52 7 7 18 5 33 -6 16 -11 45 -16 86 -16 62 0 63 0 77 35 19 43 12 65 -20 65 -29 0 -42 -25 -26 -51 17 -27 15 -31 -15 -27 -20 2 -29 9 -31 25 -6 42 -58 63 -108 43z"/> <path d="M297 3338 c-43 -38 -77 -75 -77 -82 0 -7 33 -45 74 -84 51 -50 79 -70 90 -66 26 10 19 27 -39 84 -30 30 -55 58 -55 62 0 4 25 34 55 66 30 33 55 64 55 70 0 30 -35 13 -103 -50z"/> <path d="M1300 3382 c0 -10 23 -40 50 -67 28 -27 50 -54 50 -60 0 -6 -22 -33 -50 -60 -51 -50 -64 -85 -32 -85 18 0 152 128 152 146 0 5 -30 40 -68 77 -67 67 -102 83 -102 49z"/> <path d="M2153 3515 c-38 -16 -53 -42 -53 -90 0 -50 33 -80 104 -95 78 -16 108 -50 70 -81 -28 -23 -84 -16 -110 14 -14 16 -33 27 -49 27 -28 0 -30 -7 -13 -45 17 -38 58 -55 128 -55 55 0 65 3 91 29 21 21 29 39 29 64 0 53 -31 84 -98 97 -72 15 -92 26 -92 50 0 51 74 68 108 25 12 -15 30 -25 46 -25 30 0 32 9 11 49 -24 48 -106 65 -172 36z"/> <path d="M1978 3383 l-3 -138 -27 -3 c-20 -2 -31 4 -44 22 -11 18 -25 26 -46 26 -28 0 -30 -2 -24 -27 11 -48 50 -73 110 -73 44 0 57 4 77 26 23 24 24 33 27 165 l4 139 -36 0 -35 0 -3 -137z"/> <path d="M3090 3465 l0 -55 -34 17 c-40 19 -74 13 -113 -21 -26 -22 -28 -30 -28 -96 0 -66 2 -74 28 -96 34 -29 101 -33 129 -7 17 15 18 15 18 0 0 -12 9 -17 30 -17 l30 0 0 165 0 165 -30 0 c-30 0 -30 -1 -30 -55z m-20 -95 c43 -43 15 -140 -40 -140 -33 0 -60 35 -60 80 0 45 27 80 60 80 11 0 29 -9 40 -20z"/> <path d="M3200 3354 l0 -166 104 4 c94 3 107 5 130 27 43 40 31 141 -16 141 -7 0 -2 10 10 23 30 32 29 87 -1 115 -21 20 -34 22 -125 22 l-102 0 0 -166z m188 88 c5 -37 -15 -52 -69 -52 l-49 0 0 40 0 41 58 -3 c51 -3 57 -5 60 -26z m-4 -118 c39 -39 1 -84 -71 -84 l-43 0 0 50 0 50 49 0 c32 0 55 -6 65 -16z"/> <path d="M4121 3498 c-21 -57 -65 -179 -86 -240 l-24 -68 33 0 c29 0 35 5 49 40 l15 40 65 0 64 0 12 -40 c11 -37 15 -40 46 -40 19 0 35 1 35 3 0 1 -27 74 -59 162 l-59 160 -41 3 c-35 3 -42 0 -50 -20z m72 -101 c24 -75 23 -77 -27 -77 l-44 0 21 65 c12 36 24 65 27 65 4 0 14 -24 23 -53z"/> <path d="M4370 3355 l0 -165 35 0 35 0 0 165 0 165 -35 0 -35 0 0 -165z"/> <path d="M2441 3423 c-19 -10 -38 -28 -42 -40 -7 -20 -5 -23 20 -23 17 0 31 6 35 16 4 11 17 14 43 12 30 -2 39 -7 41 -25 3 -23 0 -25 -81 -38 -105 -17 -101 -135 5 -135 24 0 49 7 60 17 17 15 18 15 18 0 0 -12 9 -17 30 -17 l30 0 0 94 c0 84 -3 98 -22 120 -31 35 -92 43 -137 19z m95 -158 c-7 -28 -50 -44 -74 -28 -36 22 -19 53 34 62 43 7 49 2 40 -34z"/> <path d="M2737 3421 c-29 -15 -37 -16 -37 -5 0 8 -10 14 -25 14 l-25 0 0 -120 0 -120 30 0 30 0 0 84 c0 76 2 86 22 100 28 20 43 20 62 0 12 -12 16 -36 16 -100 l0 -84 30 0 30 0 0 90 c0 103 -11 135 -53 150 -39 13 -36 13 -80 -9z"/> <path d="M3563 3426 c-44 -20 -65 -57 -65 -115 0 -82 41 -121 128 -121 39 0 51 5 80 34 29 29 34 41 34 81 0 49 -20 94 -51 113 -31 19 -92 23 -126 8z m83 -44 c37 -24 43 -87 13 -126 -23 -30 -45 -33 -77 -10 -28 19 -31 97 -5 126 16 18 49 23 69 10z"/> <path d="M3782 3385 c18 -25 37 -52 42 -59 7 -9 -5 -32 -38 -75 l-47 -61 38 0 c34 0 40 4 62 42 l23 41 19 -24 c10 -13 21 -32 25 -41 4 -13 16 -18 45 -18 l39 0 -45 62 c-24 33 -41 66 -38 72 4 6 22 32 41 59 l34 47 -36 0 c-29 0 -38 -5 -51 -29 -22 -44 -31 -45 -55 -6 -18 29 -27 35 -56 35 l-35 0 33 -45z"/> </g> </svg>